<svg width="28" height="28" viewBox="0 0 20 20" fill="none" xmlns="http://www.w3.org/2000/svg">
  <path d="M1 4.782C1 5.373 1.293 5.926 1.782 6.257L7.763 10.31C9.118 11.228 10.896 11.228 12.251 10.31L18.217 6.266C18.707 5.936 19 5.383 19 4.792V4.782C19 3.798 18.202 3 17.218 3H2.782C1.798 3 1 3.798 1 4.782V4.782Z" stroke="#4B7B8B" stroke-width="1.25" stroke-linecap="round" stroke-linejoin="round"/>
  <path d="M1 4.99991V14.9999C1 16.1049 1.895 16.9999 3 16.9999H17C18.105 16.9999 19 16.1049 19 14.9999V4.99991" stroke="#4B7B8B" stroke-width="1.25" stroke-linecap="round" stroke-linejoin="round"/>
  <path d="M1.58691 16.4138L7.72691 10.2738" stroke="#4B7B8B" stroke-width="1.25" stroke-linecap="round" stroke-linejoin="round"/>
  <path d="M12.2812 10.2809L18.4113 16.4109" stroke="#4B7B8B" stroke-width="1.25" stroke-linecap="round" stroke-linejoin="round"/>
</svg>
